<svg width="32" height="32" viewBox="0 0 32 32" fill="none" xmlns="http://www.w3.org/2000/svg">
<g clip-path="url(#clip0_861_2590)">
<path d="M21.3173 15.6348C21.528 18.0082 19.664 20.0002 17.3333 20.0002H12.0293C11.108 20.0002 10.4547 19.1122 10.7293 18.2335C11.3987 16.0882 13.3107 12.6802 16.3827 12.0895C18.7227 11.6388 21.1067 13.2615 21.3173 15.6348ZM21.3627 10.7522C22.3493 11.4962 23.068 12.4975 23.5107 13.6068L31.056 5.4935C32.3133 4.2375 32.316 2.20017 31.06 0.942834C29.8053 -0.313166 27.7707 -0.314499 26.5147 0.940167C26.472 0.982834 19.084 9.62417 19.084 9.62417C19.896 9.8575 20.6733 10.2322 21.3627 10.7522ZM22.252 20.5015C20.9933 21.8775 19.2 22.6682 17.3347 22.6682H12.0307C10.7533 22.6682 9.54 22.0548 8.784 21.0282C8.028 20.0015 7.804 18.6602 8.184 17.4415C9.156 14.3322 11.6787 10.4695 15.604 9.55483L21.4547 2.6695H6.66667C2.99067 2.66683 0 5.6575 0 9.3335V20.0002C0 23.6762 2.99067 26.6668 6.66667 26.6668H14.6667V29.3335H10.6667C9.93067 29.3335 9.33333 29.9295 9.33333 30.6668C9.33333 31.4042 9.93067 32.0002 10.6667 32.0002H21.3333C22.0707 32.0002 22.6667 31.4042 22.6667 30.6668C22.6667 29.9295 22.0707 29.3335 21.3333 29.3335H17.3333V26.6668H25.3333C29.0093 26.6668 32 23.6762 32 20.0002V8.38017L23.8787 17.1082C23.6653 18.3615 23.1213 19.5482 22.252 20.4988V20.5015Z" fill="url(#paint0_linear_861_2590)"/>
</g>
<defs>
<linearGradient id="paint0_linear_861_2590" x1="7.42869" y1="-3.3251" x2="17.4659" y2="26.7311" gradientUnits="userSpaceOnUse">
<stop offset="0.3" stop-color="#38BDF8"/>
<stop offset="1" stop-color="#2989FF"/>
</linearGradient>
<clipPath id="clip0_861_2590">
<rect width="32" height="32" fill="white"/>
</clipPath>
</defs>
</svg>
