<svg width="102" height="100" viewBox="0 0 102 100" fill="none" xmlns="http://www.w3.org/2000/svg">
<path d="M73.667 84H28.3337C27.5822 84 26.8615 83.7015 26.3302 83.1701C25.7988 82.6388 25.5003 81.9181 25.5003 81.1667C25.5003 71.7912 33.1248 64.1667 42.5003 64.1667H59.5003C68.8758 64.1667 76.5003 71.7912 76.5003 81.1667C76.5003 81.9181 76.2018 82.6388 75.6705 83.1701C75.1391 83.7015 74.4184 84 73.667 84ZM45.2968 42.6333H48.32L46.8495 35.567L45.2968 42.6333ZM75.0837 33H73.5225C72.8085 26.642 67.462 21.6667 60.917 21.6667H53.8337V18.8333C53.8337 18.0819 53.5351 17.3612 53.0038 16.8299C52.4724 16.2985 51.7518 16 51.0003 16C50.2489 16 49.5282 16.2985 48.9969 16.8299C48.4655 17.3612 48.167 18.0819 48.167 18.8333V21.6667H41.0837C34.5387 21.6667 29.1922 26.642 28.4782 33H26.917C24.5738 33 22.667 34.9068 22.667 37.25V42.9167C22.667 45.2598 24.5738 47.1667 26.917 47.1667H28.4782C29.1922 53.5247 34.5387 58.5 41.0837 58.5H60.917C67.462 58.5 72.8085 53.5247 73.5225 47.1667H75.0837C77.4268 47.1667 79.3337 45.2598 79.3337 42.9167V37.25C79.3337 34.9068 77.4268 33 75.0837 33ZM51.7738 50C51.2444 50.0237 50.7237 49.8587 50.3044 49.5344C49.8852 49.2101 49.5947 48.7476 49.4845 48.2292L49.2635 47.1667H44.3023L44.0643 48.2518C43.94 48.8286 43.5916 49.3323 43.0958 49.6522C42.6001 49.972 41.9976 50.0819 41.4208 49.9575C40.8441 49.8331 40.3404 49.4848 40.0205 48.989C39.7006 48.4933 39.5908 47.8907 39.7152 47.314L42.5287 34.088C42.9423 31.9488 44.682 30.1695 46.8438 30.1695H46.8495C49.0652 30.1808 50.7255 31.878 51.1958 34.2013L53.9527 47.3197C54.0205 47.6434 54.0153 47.9781 53.9374 48.2995C53.8595 48.6209 53.711 48.9209 53.5025 49.1777C53.2941 49.4344 53.031 49.6415 52.7325 49.7837C52.4339 49.926 52.1074 49.9999 51.7767 50H51.7738ZM62.3337 47.7333C62.3337 48.3345 62.0949 48.911 61.6698 49.3361C61.2447 49.7612 60.6682 50 60.067 50C59.4658 50 58.8893 49.7612 58.4642 49.3361C58.0391 48.911 57.8003 48.3345 57.8003 47.7333V32.4362C57.8003 31.835 58.0391 31.2585 58.4642 30.8334C58.8893 30.4083 59.4658 30.1695 60.067 30.1695C60.6682 30.1695 61.2447 30.4083 61.6698 30.8334C62.0949 31.2585 62.3337 31.835 62.3337 32.4362V47.7333Z" fill="url(#paint0_linear_1441_1223)"/>
<defs>
<linearGradient id="paint0_linear_1441_1223" x1="35.8218" y1="8.9342" x2="60.3345" y2="70.1027" gradientUnits="userSpaceOnUse">
<stop offset="0.3" stop-color="#38BDF8"/>
<stop offset="1" stop-color="#2989FF"/>
</linearGradient>
</defs>
</svg>
