<svg width="86" height="86" viewBox="0 0 86 86" fill="none" xmlns="http://www.w3.org/2000/svg">
<rect x="2" y="2" width="82" height="82" rx="41" fill="url(#paint0_linear_941_735)"/>
<rect x="2" y="2" width="82" height="82" rx="41" stroke="white" stroke-width="4"/>
<g clip-path="url(#clip0_941_735)">
<path d="M47.1667 63.6667C47.1667 64.675 46.3417 65.5 45.3333 65.5H23.3333C22.325 65.5 21.5 64.675 21.5 63.6667C21.5 56.5717 27.2383 50.8333 34.3333 50.8333C41.4283 50.8333 47.1667 56.5717 47.1667 63.6667ZM41.6667 39.8333C41.6667 35.7817 38.385 32.5 34.3333 32.5C30.2817 32.5 27 35.7817 27 39.8333C27 43.885 30.2817 47.1667 34.3333 47.1667C38.385 47.1667 41.6667 43.885 41.6667 39.8333ZM56.3333 21.5H38C33.0683 21.5 29.0717 25.4233 28.87 30.3C30.4833 29.365 32.335 28.8333 34.3333 28.8333C39.3567 28.8333 43.5733 32.2067 44.8933 36.8083L49 40.915L55.5817 34.3333H52.6667C51.6583 34.3333 50.8333 33.5083 50.8333 32.5C50.8333 31.4917 51.6583 30.6667 52.6667 30.6667H58.1667C60.1833 30.6667 61.8333 32.3167 61.8333 34.3333V39.8333C61.8333 40.8417 61.0083 41.6667 60 41.6667C58.9917 41.6667 58.1667 40.8417 58.1667 39.8333V36.9183L51.585 43.5C50.155 44.93 47.8267 44.93 46.3967 43.5L45.0767 42.18V42.2167C44.5145 44.7562 43.0649 47.012 40.9883 48.5783C43.8667 49.8433 46.305 51.915 48.0467 54.5H56.3517C61.4117 54.5 65.5183 50.3933 65.5183 45.3333V30.6667C65.5183 25.6067 61.4117 21.5 56.3517 21.5H56.3333Z" fill="#38BDF8"/>
</g>
<defs>
<linearGradient id="paint0_linear_941_735" x1="79.12" y1="-3.57385e-06" x2="13.115" y2="81.7" gradientUnits="userSpaceOnUse">
<stop stop-color="#2D313C"/>
<stop offset="1" stop-color="#1D1F26"/>
</linearGradient>
<clipPath id="clip0_941_735">
<rect width="44" height="44" fill="white" transform="translate(21.5 21.5)"/>
</clipPath>
</defs>
</svg>
